<svg xmlns="http://www.w3.org/2000/svg"  viewBox="0 0 100 100" width="50px" height="50px"><circle cx="13" cy="29" r="2" fill="#ee3e54"/><circle cx="77" cy="13" r="1" fill="#f1bc19"/><circle cx="50" cy="50" r="37" fill="#fce0a2"/><circle cx="83" cy="15" r="4" fill="#f1bc19"/><circle cx="87" cy="24" r="2" fill="#ee3e54"/><circle cx="81" cy="76" r="2" fill="#fbcd59"/><circle cx="15" cy="63" r="4" fill="#fbcd59"/><circle cx="25" cy="87" r="2" fill="#ee3e54"/><circle cx="18.5" cy="53.5" r="2.5" fill="#fff"/><circle cx="21" cy="67" r="1" fill="#f1bc19"/><circle cx="80" cy="34" r="1" fill="#fff"/><g><path fill="#472b29" d="M36.437,72.3c-4.817,0-8.737-3.92-8.737-8.737V36.438c0-4.817,3.92-8.737,8.737-8.737h27.125 c4.817,0,8.737,3.92,8.737,8.737v27.125c0,4.817-3.92,8.737-8.737,8.737H36.437z"/><path fill="#472b29" d="M63.562,28.4c4.432,0,8.037,3.606,8.037,8.037v27.125c0,4.432-3.606,8.037-8.037,8.037H36.437 c-4.432,0-8.037-3.606-8.037-8.037V36.438c0-4.432,3.606-8.037,8.037-8.037H63.562 M63.562,27H36.437 C31.247,27,27,31.247,27,36.438v27.125C27,68.753,31.247,73,36.437,73h27.125C68.753,73,73,68.753,73,63.563V36.438 C73,31.247,68.753,27,63.562,27L63.562,27z"/></g><g><path fill="#ee3e54" d="M66,43c0,0-7,0-8-8h-6v14.024V56l-0.05,3c-0.252,2.247-2.136,4-4.45,4c-2.485,0-4.5-2.015-4.5-4.5 s2.015-4.5,4.5-4.5c0.171,0,0.334,0.032,0.5,0.05v-6.025C47.833,48.017,47.669,48,47.5,48C41.701,48,37,52.701,37,58.5 C37,64.299,41.701,69,47.5,69c5.63,0,10.212-4.435,10.475-10H58V46.24c1.98,1.623,4.584,2.76,8,2.76C66,47,66,43,66,43z"/></g><g><path fill="#472b29" d="M58,57c-0.138,0-0.25-0.112-0.25-0.25v-8.625c0-0.138,0.112-0.25,0.25-0.25s0.25,0.112,0.25,0.25 v8.625C58.25,56.888,58.138,57,58,57z"/></g><g><path fill="#472b29" d="M47.5,69.25c-0.799,0-1.595-0.088-2.366-0.261c-0.135-0.03-0.22-0.164-0.189-0.299 c0.03-0.134,0.159-0.221,0.299-0.189c1.468,0.329,3.038,0.331,4.5,0.002c0.324-0.071,0.647-0.16,0.963-0.265 c0.398-0.132,0.788-0.288,1.157-0.463c3.438-1.624,5.683-4.991,5.861-8.787c0.007-0.134,0.116-0.238,0.25-0.238 c0.138,0,0.263,0.112,0.263,0.25c0,0.034-0.006,0.066-0.018,0.097c-0.216,3.946-2.563,7.439-6.143,9.13 c-0.388,0.185-0.796,0.348-1.215,0.486c-0.331,0.109-0.671,0.203-1.011,0.278C49.087,69.163,48.296,69.25,47.5,69.25z"/></g><g><path fill="#472b29" d="M43.354,56.998c-0.032,0-0.065-0.006-0.098-0.02c-0.127-0.054-0.187-0.201-0.133-0.328 c0.746-1.762,2.464-2.9,4.377-2.9c0.085,0,0.168,0.007,0.25,0.017v-5.741c0-0.138,0.112-0.25,0.25-0.25s0.25,0.112,0.25,0.25v6.025 c0,0.071-0.03,0.139-0.083,0.187c-0.054,0.047-0.124,0.067-0.194,0.062l-0.154-0.02c-0.104-0.014-0.21-0.029-0.318-0.029 c-1.712,0-3.249,1.019-3.916,2.596C43.543,56.94,43.451,56.998,43.354,56.998z"/></g><g><path fill="#472b29" d="M66,49.25c-1.45,0-2.831-0.205-4.106-0.609c-0.132-0.042-0.205-0.183-0.163-0.313 c0.042-0.132,0.187-0.205,0.313-0.163c1.153,0.365,2.399,0.562,3.706,0.584V43.24c-0.66-0.044-2.505-0.277-4.288-1.503 c-0.114-0.078-0.143-0.234-0.064-0.348c0.079-0.113,0.236-0.141,0.348-0.064c2.048,1.408,4.233,1.425,4.255,1.425 c0.138,0,0.25,0.112,0.25,0.25v6C66.25,49.138,66.138,49.25,66,49.25z"/></g><g><path fill="#fff" d="M45.5,67.5c-6.065,0-11-4.935-11-11s4.935-11,11-11c0.12,0,0.237,0.008,0.355,0.016l0.168,0.011 c0.267,0.012,0.477,0.232,0.477,0.499v6.025c0,0.143-0.061,0.277-0.167,0.373c-0.092,0.082-0.211,0.127-0.333,0.127 c-0.019,0-0.216-0.023-0.216-0.023C45.69,52.515,45.597,52.5,45.5,52.5c-2.206,0-4,1.794-4,4s1.794,4,4,4 c2.026,0,3.726-1.528,3.952-3.556l0.048-2.953V33c0-0.276,0.224-0.5,0.5-0.5h6c0.252,0,0.465,0.188,0.496,0.438 c0.932,7.45,7.237,7.562,7.505,7.563c0.275,0.001,0.499,0.225,0.499,0.5v6c0,0.276-0.224,0.5-0.5,0.5 c-2.828,0-5.346-0.758-7.5-2.255V57c0,0.064-0.013,0.126-0.034,0.184C56.109,62.981,51.323,67.5,45.5,67.5z"/><path fill="#472b29" d="M56,33c1,8,8,8,8,8s0,4,0,6c-3.416,0-6.02-1.136-8-2.76V57h-0.025C55.712,62.565,51.13,67,45.5,67 C39.701,67,35,62.299,35,56.5C35,50.701,39.701,46,45.5,46c0.169,0,0.333,0.017,0.5,0.025v6.025C45.834,52.032,45.671,52,45.5,52 c-2.485,0-4.5,2.015-4.5,4.5s2.015,4.5,4.5,4.5c2.314,0,4.198-1.753,4.45-4L50,54v-6.976V33H56 M56,32h-6c-0.552,0-1,0.448-1,1 v14.024V54l-0.049,2.933C48.732,58.685,47.257,60,45.5,60c-1.93,0-3.5-1.57-3.5-3.5s1.57-3.5,3.5-3.5 c0.075,0,0.147,0.013,0.219,0.023l0.169,0.022c0.037,0.004,0.074,0.006,0.111,0.006c0.245,0,0.482-0.09,0.667-0.255 C46.879,52.606,47,52.335,47,52.05v-6.025c0-0.534-0.419-0.974-0.953-0.999l-0.156-0.01C45.761,45.008,45.632,45,45.5,45 C39.159,45,34,50.159,34,56.5S39.159,68,45.5,68c6.069,0,11.06-4.695,11.461-10.729C56.986,57.185,57,57.094,57,57V46.161 C59.057,47.382,61.403,48,64,48c0.552,0,1-0.448,1-1v-6c0-0.552-0.448-1-1-1c-0.246-0.002-6.134-0.131-7.008-7.124 C56.93,32.376,56.504,32,56,32L56,32z"/></g><g><path fill="#83ccb7" d="M64,41.892C64,41.352,64,41,64,41s-2.649-0.007-4.921-1.871C60.687,41.039,62.78,41.683,64,41.892z"/><path fill="#83ccb7" d="M42.866,60.134C43.684,61.26,45.002,62,46.5,62c2.314,0,4.198-1.753,4.45-4L51,55v-6.976V34h5.181 c-0.067-0.324-0.136-0.645-0.181-1h-6v14.024V54l-0.05,3c-0.252,2.247-2.136,4-4.45,4C44.513,61,43.608,60.673,42.866,60.134z"/><path fill="#83ccb7" d="M36,57.5c0-5.63,4.435-10.212,10-10.475v-1C45.833,46.017,45.669,46,45.5,46 C39.701,46,35,50.701,35,56.5c0,3.154,1.398,5.976,3.599,7.901C36.985,62.555,36,60.145,36,57.5z"/></g><g><path fill="#472b29" d="M51,46.25c-0.138,0-0.25-0.112-0.25-0.25V34c0-0.138,0.112-0.25,0.25-0.25h5.181 c0.138,0,0.25,0.112,0.25,0.25s-0.112,0.25-0.25,0.25H51.25V46C51.25,46.138,51.138,46.25,51,46.25z"/><path fill="#472b29" d="M51,55.25c-0.138,0-0.25-0.112-0.25-0.25v-6.976c0-0.138,0.112-0.25,0.25-0.25 s0.25,0.112,0.25,0.25V55C51.25,55.138,51.138,55.25,51,55.25z"/><path fill="#472b29" d="M46.5,62.25c-0.138,0-0.25-0.112-0.25-0.25s0.112-0.25,0.25-0.25c2.154,0,3.96-1.624,4.201-3.777 l0.022-1.436c0.002-0.137,0.114-0.246,0.25-0.246c0.001,0,0.003,0,0.004,0c0.139,0.002,0.248,0.116,0.246,0.254l-0.024,1.459 C50.929,60.435,48.909,62.25,46.5,62.25z"/><path fill="#472b29" d="M42.367,48.107c-0.097,0-0.189-0.057-0.229-0.151c-0.055-0.127,0.004-0.274,0.131-0.328 c1.181-0.505,2.432-0.792,3.72-0.853c0.121,0.013,0.255,0.101,0.262,0.238c0.006,0.138-0.101,0.255-0.238,0.262 c-1.228,0.058-2.421,0.331-3.546,0.812C42.434,48.101,42.4,48.107,42.367,48.107z"/><path fill="#472b29" d="M36,57.75c-0.138,0-0.25-0.112-0.25-0.25c0-3.713,1.881-7.112,5.03-9.093 c0.116-0.07,0.271-0.039,0.345,0.079c0.073,0.116,0.038,0.271-0.079,0.345c-3.003,1.888-4.796,5.129-4.796,8.669 C36.25,57.638,36.138,57.75,36,57.75z"/></g></svg>